Coordinates
version=1
nRows=14
nColumns=42
inDegrees=yes

Units are S.I. units (second, meters, Newtons, ...)
If the header above contains a line with 'inDegrees', this indicates whether rotational values are in degrees (yes) or radians (no).

endheader
time	pelvis_tilt	pelvis_list	pelvis_rotation	pelvis_tx	pelvis_ty	pelvis_tz	hip_flexion_r	hip_adduction_r	hip_rotation_r	knee_angle_r	knee_adduction_r	knee_angle_r_beta	ankle_angle_r	subtalar_angle_r	mtp_angle_r	hip_flexion_l	hip_adduction_l	hip_rotation_l	knee_angle_l	knee_adduction_l	knee_angle_l_beta	ankle_angle_l	subtalar_angle_l	mtp_angle_l	lumbar_extension	lumbar_bending	lumbar_rotation	arm_flex_r	arm_add_r	arm_rot_r	elbow_flex_r	pro_sup_r	wrist_flex_r	wrist_dev_r	arm_flex_l	arm_add_l	arm_rot_l	elbow_flex_l	pro_sup_l	wrist_flex_l	wrist_dev_l
      1.00000000	      4.68841157	     -0.24579575	     -1.54029988	     -0.61930190	      0.93339962	     -0.09193794	     12.01693358	     -8.42828266	    -24.33430289	     34.68335256	      1.02934902	      0.60533870	     15.62802309	     15.51643570	     -9.67218547	     -2.48192607	     -2.48885000	    -18.50160394	     28.81896046	      0.03147748	      0.50298575	     24.77993378	      5.12873531	     -9.67218547	    -16.67510714	      1.86627389	     -2.88846442	      8.30053488	    -12.00644046	      3.81849644	     39.19646758	     90.00000001	      0.00000000	      0.00000000	    -14.33178252	     -7.90143184	     -4.17391117	     53.31400704	     90.00000001	      0.00000000	      0.00000000
      1.01000000	      4.53354763	     -0.20871024	     -1.62941484	     -0.61741759	      0.93317117	     -0.09066361	     12.10433336	     -8.36585237	    -24.33176638	     34.72385069	      0.98643786	      0.60604552	     15.67183999	     15.52306982	     -9.66887763	     -2.47502147	     -2.51790762	    -18.51722926	     28.77601957	      0.03887149	      0.50223629	     24.79236709	      5.11863230	     -9.66887763	    -16.65860357	      1.93580750	     -2.99017311	      8.53845738	    -11.94082085	      3.82042862	     39.32695891	     90.00000001	      0.00000000	      0.00000000	    -14.25185389	     -7.89060782	     -4.13548316	     53.33793182	     90.00000001	      0.00000000	      0.00000000
      1.02000000	      4.25362188	     -0.21595609	     -1.73572801	     -0.61549829	      0.93261219	     -0.08925119	     12.43312310	     -8.16817510	    -24.25969296	     34.91856354	      0.74601686	      0.60944390	     16.02661678	     15.55324012	     -9.62832145	     -2.28864536	     -2.65263338	    -18.61025969	     28.86467424	      0.05348697	      0.50378360	     24.87028795	      5.09030170	     -9.62832145	    -16.48435691	      2.05534164	     -3.09621165	      8.69696834	    -11.91754466	      3.96643432	     39.59358493	     90.00000001	      0.00000000	      0.00000000	    -14.27870730	     -7.98210392	     -3.89093862	     53.47033422	     90.00000001	      0.00000000	      0.00000000
      1.03000000	      4.11010303	     -0.17294365	     -1.77714038	     -0.61357048	      0.93246060	     -0.08805643	     12.48467423	     -8.11676541	    -24.20825704	     34.94805765	      0.73301318	      0.60995867	     16.06464667	     15.55332318	     -9.62542608	     -2.28039069	     -2.67386601	    -18.63138852	     28.83043542	      0.02730436	      0.50318602	     24.86196330	      5.09420318	     -9.62542608	    -16.47383605	      2.13569312	     -3.23341277	      8.89818947	    -11.83964466	      3.98552781	     39.73379111	     90.00000001	      0.00000000	      0.00000000	    -14.20554435	     -7.96241641	     -3.84440743	     53.49586014	     90.00000001	      0.00000000	      0.00000000
      1.04000000	      3.96258501	     -0.15727899	     -1.79264951	     -0.61161806	      0.93229128	     -0.08689126	     12.54633345	     -8.00157848	    -24.06033713	     35.00013975	      0.70184046	      0.61086768	     16.17329745	     15.53009111	     -9.62066944	     -2.25638801	     -2.71728405	    -18.65901382	     28.80236037	     -0.04654879	      0.50269602	     24.83022447	      5.11008540	     -9.62066944	    -16.45153247	      2.26634575	     -3.45399978	      9.11507034	    -11.76459494	      4.02844733	     39.94835442	     90.00000001	      0.00000000	      0.00000000	    -14.20528994	     -7.98673419	     -3.77489575	     53.51882695	     90.00000001	      0.00000000	      0.00000000
      1.05000000	      3.81325716	     -0.12130579	     -1.81729219	     -0.60977915	      0.93217773	     -0.08572169	     12.60347673	     -7.92476638	    -23.93999527	     35.01185780	      0.70231167	      0.61107220	     16.27967481	     15.48911874	     -9.61711070	     -2.21263810	     -2.74936461	    -18.68991807	     28.80123382	     -0.10181231	      0.50267636	     24.79496638	      5.12963715	     -9.61711070	    -16.45017847	      2.36784747	     -3.61880456	      9.30159165	    -11.70625540	      4.07975825	     40.13758257	     90.00000001	      0.00000000	      0.00000000	    -14.13913096	     -7.99324119	     -3.71164069	     53.57506121	     90.00000001	      0.00000000	      0.00000000
      1.06000000	      3.49585498	     -0.24808619	     -1.91050381	     -0.60803740	      0.93167164	     -0.08436994	     12.83092106	     -7.53718100	    -22.94905389	     34.97747013	      1.04751708	      0.61047202	     16.54017437	     14.02944237	     -9.52563240	     -1.80318075	     -3.05703840	    -19.22741533	     29.22203256	     -0.37972243	      0.51002068	     24.89342335	      5.77233931	     -9.52563240	    -16.26385372	      2.65088598	     -3.64479310	      9.21316671	    -12.05813270	      5.18373753	     40.96332935	     90.00000001	      0.00000000	      0.00000000	    -14.18232836	     -8.12365546	     -3.25468743	     53.78505753	     90.00000001	      0.00000000	      0.00000000
      1.07000000	      3.36848728	     -0.18465783	     -1.94462529	     -0.60620337	      0.93166429	     -0.08317742	     12.84754947	     -7.50528037	    -22.86648206	     34.95936076	      1.05653645	      0.61015595	     16.58326708	     14.01256871	     -9.52236917	     -1.77490229	     -3.06760699	    -19.24816332	     29.23921862	     -0.41296737	      0.51032064	     24.85460465	      5.78887087	     -9.52236917	    -16.28703008	      2.72643765	     -3.79561148	      9.40217412	    -11.98677609	      5.19328347	     41.11040302	     90.00000001	      0.00000000	      0.00000000	    -14.12455147	     -8.13220398	     -3.23806341	     53.80512808	     90.00000001	      0.00000000	      0.00000000
      1.08000000	      3.24977557	     -0.13698731	     -1.95996344	     -0.60441456	      0.93172177	     -0.08204706	     12.83162635	     -7.43252865	    -22.70527411	     34.91735269	      1.08682007	      0.60942277	     16.67482096	     13.97251093	     -9.51812723	     -1.70148479	     -3.07878076	    -19.26384981	     29.33102535	     -0.50248925	      0.51192297	     24.75839882	      5.81817430	     -9.51812723	    -16.32118216	      2.83613911	     -3.99064349	      9.58314531	    -11.92350436	      5.22837225	     41.31956489	     90.00000001	      0.00000000	      0.00000000	    -14.08993954	     -8.14736275	     -3.21368733	     53.84627266	     90.00000001	      0.00000000	      0.00000000
      1.09000000	      2.96719118	     -0.31451189	     -1.92678439	     -0.60281297	      0.93145805	     -0.08092399	     12.87419220	     -7.01089262	    -21.83496367	     34.61350345	      1.49853956	      0.60411960	     16.72705309	     12.59217052	     -9.43079819	     -1.19160896	     -3.51765054	    -19.78892636	     30.00048965	     -0.76286831	      0.52360732	     24.69300592	      6.36439154	     -9.43079819	    -16.19491395	      3.21872961	     -4.09498252	      9.51656491	    -12.26236886	      6.14334723	     42.06332227	     90.00000001	      0.00000000	      0.00000000	    -14.06112783	     -8.14516060	     -3.11229203	     54.02900397	     90.00000001	      0.00000000	      0.00000000
      1.10000000	      2.86193057	     -0.23668987	     -2.07058295	     -0.60093045	      0.93157498	     -0.07952092	     12.85578814	     -7.00757365	    -21.83438918	     34.58672766	      1.52653117	      0.60365228	     16.75516340	     12.58299331	     -9.42861710	     -1.16016036	     -3.48924118	    -19.74972509	     30.09331453	     -0.81151313	      0.52522742	     24.63749102	      6.38170459	     -9.42861710	    -16.22726884	      3.26004470	     -4.09612897	      9.67685253	    -12.18798161	      6.15981363	     42.17452359	     90.00000001	      0.00000000	      0.00000000	    -14.03904570	     -8.15668470	     -3.10853773	     54.04509678	     90.00000001	      0.00000000	      0.00000000
      1.11000000	      2.68205568	     -0.29790124	     -2.01316963	     -0.59932419	      0.93153815	     -0.07847933	     12.79578905	     -6.82387668	    -21.61833163	     34.35461642	      1.69862826	      0.59960117	     16.96432123	     12.45290194	     -9.40133376	     -0.69067791	     -3.74346160	    -19.93820556	     30.86283062	     -1.03721242	      0.53865801	     24.20049582	      6.34197940	     -9.40133376	    -16.22011077	      3.51843069	     -4.26621046	      9.70715546	    -12.28790411	      6.43005238	     42.66919725	     90.00000001	      0.00000000	      0.00000000	    -14.05805588	     -8.17478879	     -3.10289059	     54.28440090	     90.00000001	      0.00000000	      0.00000000
      1.12000000	      2.59130773	     -0.18093468	     -2.17723133	     -0.59758408	      0.93176093	     -0.07713690	     12.76328946	     -6.85594780	    -21.62262971	     34.29162412	      1.69494214	      0.59850175	     16.98203871	     12.44353711	     -9.39868117	     -0.60163636	     -3.69109096	    -19.88936404	     31.06881351	     -1.06140710	      0.54225309	     24.12063014	      6.35960620	     -9.39868117	    -16.28855020	      3.52822403	     -4.23585932	      9.87123723	    -12.26552137	      6.46914109	     42.78752359	     90.00000001	      0.00000000	      0.00000000	    -13.99945589	     -8.17149113	     -3.09689388	     54.31469636	     90.00000001	      0.00000000	      0.00000000
      1.13000000	      2.38993578	     -0.23794836	     -2.09108181	     -0.59603739	      0.93170855	     -0.07613921	     12.69373704	     -6.72692063	    -21.61822765	     34.02649362	      1.86472127	      0.59387435	     17.10992515	     12.50476722	     -9.37860339	      0.08126773	     -4.02214032	    -20.04472915	     32.23163376	     -1.26175246	      0.56254813	     23.51573110	      6.18076807	     -9.37860339	    -16.25447382	      3.79438898	     -4.39205278	      9.84479470	    -12.42557503	      6.83755459	     43.29439682	     90.00000001	      0.00000000	      0.00000000	    -14.01985987	     -8.19293572	     -3.09525302	     54.56175611	     90.00000001	      0.00000000	      0.00000000
